<svg xmlns="http://www.w3.org/2000/svg" width="549.675" height="549.683" viewBox="0 0 145.435 145.437">
  <defs/>
  <style>
	path { fill: #000;}
	.notion-body.dark path { fill: #fff; }
  </style>
  <path d="M3.767 141.663L0 137.89v-19.836l27.7-27.702 27.7-27.7-.86-2.725c-3.426-10.844-2.543-22.854 2.455-33.42C66.874 5.625 91.012-4.855 113.025 2.18a46.505 46.505 0 0129.98 29.557c3.916 11.703 3.079 24.162-2.37 35.25-6.298 12.818-18.284 22.104-32.285 25.014-7.51 1.56-14.812 1.24-22.317-.98l-3.264-.965-5.867 5.862-5.866 5.862H66.94v4.108l-3.774 3.767-3.774 3.767h-4.094v4.106l-5.228 5.223-5.228 5.223h-7.007v7.016l-5.228 5.223-5.227 5.223H7.534zm24.738-5.549l3.51-3.502v-10.458h10.444l3.509-3.502 3.51-3.502v-7.548h7.528l2.056-2.045 2.057-2.044V95.96H68.666l4.184-4.19 4.185-4.192-1.838-1.092c-6.315-3.751-12.495-9.932-16.247-16.248l-1.093-1.84-26.018 26.018L5.82 120.433v9.257l23.088-23.083 23.089-23.082h1.217c2.09 0 3.536 1.813 2.873 3.6-.167.447-10.433 10.918-24.676 25.169l-24.39 24.403 1.44 1.46 1.442 1.46h15.092zm78.704-49.662c16.04-3.449 28.234-15.68 31.751-31.85.499-2.292.587-3.506.587-8.12 0-4.612-.088-5.826-.587-8.119-3.577-16.446-15.993-28.683-32.475-32.008-3.334-.672-11.713-.676-15.03-.006C74.75 9.722 62.19 22.272 58.825 38.952c-.675 3.35-.675 11.712 0 15.062 1.704 8.442 5.267 15.067 11.4 21.194 6.08 6.075 12.634 9.67 20.467 11.227 3.694.734 3.935.751 9.187.656 3.568-.065 5.407-.226 7.329-.639zM96.886 48.516L74.321 25.95l2.46-2.374c8.256-7.963 19.293-10.82 30.53-7.904 10.205 2.648 18.809 10.865 22.013 21.022 1.114 3.53 1.484 5.972 1.484 9.79 0 3.818-.37 6.26-1.484 9.79-1.529 4.847-4.338 9.392-8.05 13.027l-1.822 1.783zm23.79 11.924c4.18-6.513 5.38-14.056 3.398-21.338-1.149-4.217-3.32-7.901-6.579-11.16-3.296-3.296-6.747-5.32-11.53-6.763-2.168-.654-2.77-.719-6.746-.725-4.008-.006-4.557.052-6.691.71-2.704.833-5.401 2.135-7.946 3.835l-1.804 1.206 18.208 18.209C111 54.428 119.212 62.623 119.235 62.623c.023 0 .671-.983 1.442-2.183z"/>
</svg>
